<svg width="62" height="62" viewBox="0 0 62 62" fill="none" xmlns="http://www.w3.org/2000/svg">
<path d="M49.0833 2.58333C49.0833 1.1566 50.2399 0 51.6667 0C53.0934 0 54.25 1.1566 54.25 2.58333V4.0967L57.5331 0.813476C58.5419 -0.195379 60.1777 -0.195376 61.1865 0.813479C62.1955 1.82233 62.1955 3.458 61.1865 4.46687L57.9033 7.75H59.4167C60.8434 7.75 62 8.90661 62 10.3333C62 11.7601 60.8434 12.9167 59.4167 12.9167H52.7367L32.8127 32.8406C31.8039 33.8494 30.1682 33.8494 29.1594 32.8406C28.1506 31.8318 28.1506 30.1961 29.1594 29.1873L49.0833 9.26337V2.58333Z" fill="#D4AF37"/>
<path d="M44.9304 9.78838C46.0712 8.64763 45.8999 6.74436 44.4804 5.97796C40.4692 3.81243 35.8781 2.58325 31 2.58325C15.3059 2.58325 2.58334 15.3058 2.58334 30.9999C2.58334 46.6939 15.3059 59.4166 31 59.4166C46.694 59.4166 59.4167 46.6939 59.4167 30.9999C59.4167 26.1314 58.1924 21.5489 56.0348 17.5434C55.2694 16.1223 53.365 15.95 52.2234 17.0914L52.1461 17.1687C51.2931 18.0216 51.1583 19.3448 51.708 20.4185C53.3332 23.5925 54.25 27.1892 54.25 30.9999C54.25 43.8406 43.8407 54.2499 31 54.2499C18.1594 54.2499 7.75001 43.8406 7.75001 30.9999C7.75001 18.1593 18.1594 7.74992 31 7.74992C34.8187 7.74992 38.4224 8.67057 41.6012 10.302C42.6754 10.8533 43.9999 10.7189 44.8537 9.86526L44.9304 9.78838Z" fill="#D4AF37"/>
<path d="M37.1739 17.545C38.3948 16.3242 38.0876 14.2685 36.441 13.7496C34.7239 13.2085 32.8959 12.9167 31 12.9167C21.0128 12.9167 12.9167 21.0129 12.9167 31.0001C12.9167 40.9872 21.0128 49.0834 31 49.0834C40.9872 49.0834 49.0833 40.9872 49.0833 31.0001C49.0833 29.1148 48.7948 27.2966 48.2595 25.5877C47.7428 23.9388 45.6852 23.6298 44.4636 24.8516L44.2251 25.09C43.4987 25.8163 43.2954 26.8988 43.5413 27.8959C43.7865 28.8903 43.9167 29.9301 43.9167 31.0001C43.9167 38.1337 38.1336 43.9167 31 43.9167C23.8663 43.9167 18.0833 38.1337 18.0833 31.0001C18.0833 23.8664 23.8663 18.0834 31 18.0834C32.0778 18.0834 33.1248 18.2154 34.1258 18.4642C35.1243 18.7124 36.2095 18.5096 36.937 17.782L37.1739 17.545Z" fill="#D4AF37"/>
<path d="M28.6182 23.641C29.6758 23.2883 30.2079 24.5109 29.4195 25.2993L27.3386 27.3805C25.3232 29.3957 25.3232 32.6631 27.3386 34.6784C29.3539 36.6937 32.6213 36.6937 34.6366 34.6784L36.6913 32.6236C37.4813 31.8336 38.704 32.3694 38.3442 33.4276C37.3059 36.479 34.3932 38.75 31 38.75C26.7197 38.75 23.25 35.2803 23.25 31C23.25 27.589 25.5447 24.6657 28.6182 23.641Z" fill="#D4AF37"/>
</svg>
