<svg width="19" height="19" viewBox="0 0 19 19" fill="none" xmlns="http://www.w3.org/2000/svg">
<path d="M12.9499 9.19361C14.7379 9.19361 16.1874 7.82157 16.1874 6.12909C16.1874 4.43661 14.7379 3.06458 12.9499 3.06458C11.1619 3.06458 9.7124 4.43661 9.7124 6.12909C9.7124 6.61932 9.834 7.08266 10.0502 7.49356C10.1077 7.60276 10.1268 7.72756 10.0935 7.84541L9.90069 8.52757C9.81697 8.82372 10.1032 9.09462 10.416 9.01538L11.1367 8.83285C11.2612 8.80135 11.393 8.81943 11.5084 8.87386C11.9425 9.0785 12.432 9.19361 12.9499 9.19361Z" fill="#615328"/>
<path d="M6.98784 6.37371L7.4606 7.13102C7.88724 7.81445 7.71597 8.71099 7.04401 9.31173C7.04401 9.31173 6.22902 10.0404 7.70674 11.3615C9.184 12.6822 9.99963 11.954 9.99963 11.954C10.6716 11.3533 11.6744 11.2002 12.4389 11.5816L13.286 12.0042C14.4405 12.5802 14.5768 14.0274 13.5621 14.9345C12.9524 15.4796 12.2055 15.9037 11.3798 15.9317C9.98987 15.9788 7.62936 15.6644 5.26153 13.5475C2.8937 11.4307 2.54192 9.32046 2.59462 8.07787C2.62592 7.33973 3.10033 6.672 3.71004 6.12694C4.72471 5.21983 6.34359 5.34171 6.98784 6.37371Z" fill="#615328"/>
</svg>
